<mxfile host="65bd71144e">
    <diagram id="7U_ecdqNq_hJK0uGZlag" name="ページ1">
        <mxGraphModel dx="692" dy="594" grid="1" gridSize="10" guides="1" tooltips="1" connect="1" arrows="1" fold="1" page="1" pageScale="1" pageWidth="827" pageHeight="1169" math="0" shadow="0">
            <root>
                <mxCell id="0"/>
                <mxCell id="1" parent="0"/>
                <mxCell id="2" value="Actor" style="shape=umlActor;verticalLabelPosition=bottom;verticalAlign=top;html=1;outlineConnect=0;" vertex="1" parent="1">
                    <mxGeometry x="340" y="280" width="30" height="60" as="geometry"/>
                </mxCell>
                <mxCell id="3" value="&lt;font color=&quot;#330066&quot; size=&quot;1&quot; style=&quot;&quot;&gt;&lt;b style=&quot;&quot;&gt;&lt;i style=&quot;font-size: 22px;&quot;&gt;たのしい&lt;/i&gt;&lt;/b&gt;&lt;/font&gt;" style="whiteSpace=wrap;html=1;shape=mxgraph.basic.loud_callout;strokeColor=#FF3333;strokeWidth=3;" vertex="1" parent="1">
                    <mxGeometry x="370" y="160" width="183.33" height="110" as="geometry"/>
                </mxCell>
                <mxCell id="4" value="" style="shape=mxgraph.signs.food.food_truck;html=1;pointerEvents=1;fillColor=#000000;strokeColor=none;verticalLabelPosition=bottom;verticalAlign=top;align=center;sketch=0;" vertex="1" parent="1">
                    <mxGeometry x="160" y="280" width="150" height="110" as="geometry"/>
                </mxCell>
                <mxCell id="5" value="" style="shape=mxgraph.signs.food.restaurant_2;html=1;pointerEvents=1;fillColor=#000000;strokeColor=none;verticalLabelPosition=bottom;verticalAlign=top;align=center;sketch=0;" vertex="1" parent="1">
                    <mxGeometry x="400" y="320" width="52" height="104" as="geometry"/>
                </mxCell>
                <mxCell id="6" value="" style="shape=image;imageAspect=0;aspect=fixed;verticalLabelPosition=bottom;verticalAlign=top;strokeColor=#FF3333;strokeWidth=3;image=data:image/png,iVBORw0KGgoAAAANSUhEUgAAAMIAAABsCAYAAAA4922vAAAAAXNSR0IArs4c6QAAAARnQU1BAACxjwv8YQUAAAAJcEhZcwAADsMAAA7DAcdvqGQAAABhaVRYdFNuaXBNZXRhZGF0YQAAAAAAeyJjbGlwUG9pbnRzIjpbeyJ4IjowLCJ5IjowfSx7IngiOjE5NCwieSI6MH0seyJ4IjoxOTQsInkiOjEwOH0seyJ4IjowLCJ5IjoxMDh9XX3otegyAAARKElEQVR4Xu2de3BcVR3Hv0236Sa7aR7NbB+ktqESo7Y8WmtHMfIYHqaK6OgoGeyIdEZlfLRIdHgMKDAoI3EsKjP8AeMoOPE1OjrYUmRAJkUtteWRDoaWUqChhTWkSbObpulS/P3OPWf33Ju7m02y2+xNf5+Zw73nPs7eht/3nN+59/5+d9asUMW7EITTnDK9FITTmqKPCGtXLtFrbnZ0H9Rrp5h1DVj8/UVI3r4Tg1v0NuG0p6hCaIjNw5MPbPA1+i/d8ke9VmQ2NeOs1gQOXN6LlN4kCF4K5hqx0XvL3RsvQ2/8KG6897F0eWbPG/oMQSgdZi2jEeE1XRnLUpx9LvDCc9mPYLjXZ8Nno8+HN94aHHdECHWsQWNLtVPZuxv71ver1WzbGde+gR4c7F6EJaZOHOl8HH172TWKon9tD0Z4o3KVmhFRRwDJrqdxqP2YWlftLdiPg1iFJU28ZRBxy6UKP3SJ3u4+Twges176Q/u7l7fdh7GmvhTf/NOjuKXpGXxvxZfxkN5q07i4Vi1/fdfn8ZNfb8fzL72p6rmIzY/iW1etzS2EbO6MZzsbYt1bjgEqo115OLOvowGpdlr3tqUM3wihDvU7VgEskM28swLV287HnK1O3QhLCcjU9W9Ai8QWohBcyl5aczO2dX6DzN7GiOAF3HWFvwiYq1rPxmP3X4OFZNz3XP8JtT5eqQyX67NzsDeBZE0UIV11ICNtbcCRrRlxjOzqRWRBBa1VILISiN9r7WMR6PVshDqWo5ZGFUcEzDEMUvu1q+t0nbD2p544nL6uVO8QqbrSc41CUCm78tIfwi0GEkHno2hXIvgifnFAbfSla9erei1/zm5aoNdysKUXhzqBJTsuwVk7mhHWm5naNt6mS1uDNsYKzKkZwvFJ3AVKvuVxZ1iE2Qx8yzBG9So29+AAuV6NfB3bGkQQAacMB+6DEsN5LIYb0M4iWPkCOsYRAbOd5g6J4eO6lh/nNi3Ua+NAhrZv7ePYx4JIGxr76LSNt5uSdp+qMHedWpkQzohi0RRFJD487mjCpNp3qmtQgnjIGkWEwOHcNWIxtDpiuCFPERie2pV7Iu3lnHyFYEi7SceQ7KYBYKNf79uPxN5q1z6eI4zXSytXp2kV6jfpDcb92jUxv1/cpOAz5ecIn7v4g7h702W6lh8vvhLHlZt+o2s+8ASX3R5F9js1jJnIMq596TtKzgQ4VpPfXSO7PXPXKDMh5sl1DAk6N6Un0g69OGjaEwLJlIVQX1uJf/3qa7qWH4f+dxQXbHhQ1wRh+inIk+VrPn2eXsuPvv4kHtm+V9cEYfop+rtGghAE5O1TQSBECIJAiBAEgRAhCAIhQhAEQoQgCIQIQRAIEYIgECIEQSCm/clywbJc8It6q+NFixhTL/TBHRoqzBymVQgc51ywLBdFFoIwszllrpGd3cIUyXIhlAo5R4Sl564Enuv2Cew3TF+WCyc2YBWc9AG9OMiRbGZE0AH6ya4qxEzwvYpD8MYdcKzCCuBeE+/gDebPxB/AShTAuOMiJB4h6OQQwgb8rucOnPPsD1FyWS50sI3JNpEWhQnG0cE2cKVmIRE80eMYvAr8gTJeDrCJYY9zHJ1Xv3ERyrt13XK3cmXMUMdJErFAk3uO0PgN/OXvN+N9O71isLNcZA/rvGnDBbj2SuphJ8BX7/wrNnzmvImne7HnCK6ULX5kevoRqy1O0VKDwyjnjBim3rtTiS0jhAo6dzlOuFJGekcWIWjkniOYwP5Sy3LB5Blgn4GN32TAMC4VsTmOIyommlPCDCHR/jaSMHXghG/8kDdjxjEcj1djjhVCKgSL8SfLpZrlwhMsH2qo0mt+sAi4FzfZL3bjiN7jBP43ILqpAnPicRpB2Kh1nUaHpG8P782YUYG5scEsohGCQH53jUoty4XqxZtRk84+UYcaK7XjGNZVotzuxTfFMiMCkaLJeXnrcpTrHEecOEzVu9/2GXXGZszApqU0z8gmGiEI5H/7lMXQPB+LVuQvAmai7lFVZK4quelH3+09KE8n+yJ/v5N8+mxs6UW8q0onDKOyGtaI4KR1ockBkk84QmChjdZUY7RX1z2MrH8cB+PNTnIvLjJRDjxFf6AmWS6EIHBKnixLlguh1DklQhCEUueUvWIhCKWMCEEQCBGCIBAiBEEg8hLCTbfdpdcEYWYiI4IgECIEQSBECIJAiBAEgSh5IXCWC78yPpn4g/pNznrmW2lFgAN8ivhBQQ4MKmb7pzt5vWLBd41+dMctunbq4DjnyWa5GPv9s8kzu74cVRctwNCTb+GdvvQHZt3YEXJC4CiZEcHObmHKVLNcjPmG8iQpP6MS746czC4CIfBMaUQo1SwXYzNMxBH1xBnbxxzp3A206RhmZ1OaskgI8y5biOEXBjC6P6G3Muxu+WfRcEajw4jHmhGr0RkufL/eKVk0SoUpjAgb8OPfPmrFMntxAvy3PXwH1ustXjjLBZfQ7DJ896eP4trb/jRu4VFhPDhw5kDXIJJdT2Ofj4Gwoaqsdfqj5YnVVgyzh9BC57v/qTftVtiAHYN12iChpT+Hq2laRAbO+5zfD10cRdKEinb2oratGWH97ejIxfqj5+sqgYFBlDfoOkfS7eXwUTfq+mM9OKCv3/1RdmEyTEEID+KLHL7pCuw32Fku/FO9MFe1no3H7r8GC+dHcc/1n1Dr45XKcLk+e7JwWCcQ78z48iPr7RhmNxUfqMbxVxI4mbTiz1RoZg8G9PeYVcScN0Ju735XRotUu04lw3CoqV7lj5VHVs5XRhy6mMTTfRgw9YYqn4+f6+u/14qI2/wa4liEiCuOWpgIU5sjlHKWi5x4s1D4w5PkWeEyjL4xrLdYSBaNGcXUJ8ulmuUiJ54sFCq4fyw5J8mSRWNGUZi7RqWW5SInOgtFW+aefJj8dTOJNfAkee6ZURx7cVBvsZAsGjOOwgiBKaksF7kZWf804rFV2k25BNFdY+cI/pNkg2TRmGlM+wO1kshywbc2NzppHo0xVV9xBkZfT+LY8wN6izCTKYkny9Ob5cJJKBzpztyjz+tJsjCjKOlXLIqF+2EUYbJoC6ctp6UQBMFL4SbLghBgRAiCQIgQBIEQIQgCIUIQBEKEIAiECEEQiJJ/jnDkzsm9QVN7q4SpCPkT2BGhrHppukyOTHzAKclyUQj4nagdHNk2FfiVkjWoLlYQj7rGIrZfJAInBDb86htHUXXdvnQZDS3Xe/Mn1LHc+UD5Wo4P7kefWuqdwuTZ0otDa4P3vekZMUc4PlSGY0MTd4UKleVCCD6BFMLJQXcwT6r/dYwcnZ23GPilu8aWakRazifXiF0Ndo3cwzkf48QaGNcp45LY+xZ36EB7Vyimdzu13dGc3qdcMM6DZNc13PbijjpyX0xbudwM+zezH8fB/ua3Mtfl4Pxeg9OOTgBg//vMNuXy2AkC1PVbbppJcDbGfXP/XUo1SVnghMAiSL3+FJLPPIzEjt+oYshXDFPJcuHdZ17d5qizdFaL23uAlhWWYVYjtiDu7FMZLMggOPVLuu72+yMt5OqpDBi8fwix77v3O3gyadx+GBG/48hAG1ceTme8iGM5YjV6nybSEkWC96t4jDpE0/++p+n4ZsRYPFs4ljqTICDUQCPqQCZkNLy6wSfRgHON5erv7Pz+QawaI8ZSIJBzhLIzLsD/HroOfQ9/HeGzWhCqe4/em78YspM7ywVnnfDGKys292TmGGw0rniewUx7KoOFt+6OQU527bEyXryG+ADHMOu6wZtJQ/3m2Fjm6lYy0K2ZgKNU+x5qT1c0ya7XrM6A5kvpV9I53YwJVXUSBDipZ5zEAplUNBwz3YuEd46lrzFuOgtipJM6CZ2lo5QInBDCrQ+SAK7TNSgx1Ky7WdccWAxTI0eWCzL4A92LnDBJVy4h7v2MC3D+mF538rAB6lUvNVa4pvpNv0wWEw/qt10pdiENHEsdWUCGv24+IvE4BjnE1NSR8A8V9Wb72DKMUZW1o7QIhBDMnSIuc5Z9HPVful/vIVtovQnRtVdj2c+HVLFHh8mTO8tFqn2nGuaVIJTPyyI4H3O2OsO/cikKFuGZI0OFvutll7F3vrziqMCcHCJlEaicsbo9diHT8OjVFEO4KYpRdoPYqHUdvokGCO/oyX/LgSyimUYCOVm2jZ1do8KSX5YLJuMmsXFZxso95BRGhEjL0rSvH+pY4Z+hQhnlKv9nHzxxVaOV49rUkntkjFHdNtbrfoQWVFt309gFsrNzHMMJcr/qWqv0v5X/Vk49nXjAhq+RRi01x9Dw3zKraKaRQAqh2OTKcmG7DWe1AQfVBJMz3fGkVm/fSD3mFEaEZFcCUf0bjS1D+je8eDNpUHG5ag48etkZL2LYn3O04vnQqLqbxsevwJy4nc5Gp6i0hDmya4hEn82V5Oczdnvu/K2lRGBesTjZ+BXMqnKeIo+8vB0j+7rUOrtFZoTg26jmLtKZ97+jlgXBJ8tFseBbl6VqLDOZ4IwIL/8SiSfuwsDWH6VFwLDh8zYu9q3UwkH+/8bSHM6FwhEYIZTNpiG59gRCc0/qLdkpmz3uIJcT1wMlvhsT3y099AxHslgIAiGTZUEgRAiCQIgQBIGYfeEDJ36wLLEDy27eg2zLJUf/jdlXP5J1vyxlGfTlrAsvvWLcyfJHWy7CP7ue1DVBmHmIayQIhAhBEAgRgiAQp48QPgUc+rZeLwKj1HYx2xeKi4wIBaL8Z8BiKhNl+FbgKIlUmF6mXQh1tTVjig3X37u8URWGl95jBGGqTLsQLr/0ItTV1eLWm76j6ms+5P6eWv+RASw/cxnWrD43LRTelg9H7yZ3RRfXl9BWUbu0bfjLzj7VI+tt5njTS3OPPUz7DNym3YNzndtm16if2jMoV8lqz+9LbHzuQARIfIyOod8xrxPa55o2T/K1eo8RV6xgTLsQdu56Di/vd75Hywa+/5VX0faFz+LDJAgWCS93/udZJQCuP0Pr+cAGjO3krtzolBEyNi8csM775j1CBrYSCP9eH0/nsXGy8YZfp+Non4IFkQRS850qzzsSh8gt0lUDG21fNbBQ/za312cZsWEe7auh9qJ8nXc6/zPUubQ01x1+jyO8sl+pL9AioUWbWAzUT8IVE/yZdiEYERi4zu4PGzwLoFaPANse/0f+bhEZC48ZUTJwwzwyNi9RMi4DG1rlbl2h86J6textEgIZIxsxiwUkDJg6CSL6Cq14SLyfjPZv1h+X2uOrHrFGlmyoc61rZSEa4VVSmykaMIdJpCE6xitAYfJMuxCywb0/G/62vz+Znh/wOo8WeTE48X+c7Uol9DYlCnJfOCiHBREmwXA8samHaETwI2REpQnR9aSoF8+HgS9kruNNEsaICRumNqPUDoucRzGhcJSEEMwIYAye4dGAR4ILWj6i5gj9/UfUaMHb2F0aFzIe2xXh3jsXLIKQcY2omBGBCZOxj9AokyIj5F6YjVrVeZ/H4A0pT++fouvJJhov9foa0sW4QOwSUTtRKnKnqbCUhBDYwDt//2eXm8QGz8YfDofVSKDqVPi4cecJuhdX/rSGXY6skIGxUad7cTovPSIQqjcn7bEQmHJyh1Sd3Ba/PyALZ+CTlhCpPe7FlWjot3hSnu0z5nxuX5ZJ8DC1GaJ/+jwqCfp975xDmDwl5xrxqMDGzku+m8Qjw2SYR717iu/GaBcj7DNHSEMGWvNfMkB97KEz3SNCWTf9h4QV5iVDQgtRPUTzBz/4mUI9ieZN0x4Z7UI9GfZSyUZt3TXic2uoxzfXzYXvWvFdogFqU7lEVFT7cteoYMjbp4JAlNyIIAjTgQhBEAgRgiAQIgRBIEQIgkCUoe2vzposZXkaL/PKdCcIMxvg/4qjobNYGnHQAAAAAElFTkSuQmCC;" vertex="1" parent="1">
                    <mxGeometry x="60" y="172" width="194" height="108" as="geometry"/>
                </mxCell>
            </root>
        </mxGraphModel>
    </diagram>
</mxfile>